# Blender v2.78 (sub 0) OBJ File: ‘smstdodeca_centred.obj’
# www.blender.org
o smstellateddodecahedron
v -8.333346 25.647346 35.300556
v -57.117496 41.498299 35.300560
v -26.967257 -0.000008 35.300552
v -26.967257 -0.000008 35.300552
v -57.117496 -41.498314 35.300545
v -8.333346 -25.647362 35.300549
v -8.333346 -25.647362 35.300549
v 21.816954 -67.145500 35.300541
v 21.816954 -15.850960 35.300549
v 21.816954 -15.850960 35.300549
v 70.600998 -0.000008 35.300552
v 21.816954 15.850945 35.300556
v 21.816954 15.850945 35.300556
v 21.816954 67.145500 35.300564
v -8.333346 25.647346 35.300556
v 21.816954 15.850945 35.300556
v 70.600998 -0.000008 35.300552
v 35.300549 25.647350 8.333354
v 35.300549 25.647350 8.333354
v 57.117496 41.498314 -35.300545
v 13.483594 41.498306 -8.333345
v 13.483594 41.498306 -8.333345
v -21.816957 67.145515 -35.300541
v -13.483600 41.498306 8.333357
v -13.483600 41.498306 8.333357
v -57.117496 41.498299 35.300560
v -8.333346 25.647346 35.300556
v -8.333346 25.647346 35.300556
v -0.000003 -0.000015 78.934502
v 21.816954 15.850945 35.300556
v -21.816957 -15.850948 -35.300556
v -21.816957 -67.145485 -35.300564
v -35.300556 -25.647354 -8.333356
v -35.300556 -25.647354 -8.333356
v -57.117496 -41.498314 35.300545
v -43.633900 -0.000003 8.333350
v -43.633900 -0.000003 8.333350
v -57.117496 41.498299 35.300560
v -35.300556 25.647354 -8.333348
v -35.300556 25.647354 -8.333348
v -21.816957 67.145515 -35.300541
v -21.816957 15.850956 -35.300549
v -21.816957 15.850956 -35.300549
v -0.000003 0.000011 -78.934494
v -21.816957 -15.850948 -35.300556
v -8.333346 25.647346 35.300556
v 21.816954 67.145500 35.300564
v -13.483600 41.498306 8.333357
v -13.483600 41.498306 8.333357
v -21.816957 67.145515 -35.300541
v -35.300556 25.647354 -8.333348
v -35.300556 25.647354 -8.333348
v -70.600998 0.000004 -35.300552
v -43.633900 -0.000003 8.333350
v -43.633900 -0.000003 8.333350
v -57.117496 -41.498314 35.300545
v -26.967257 -0.000008 35.300552
v -26.967257 -0.000008 35.300552
v -0.000003 -0.000015 78.934502
v -8.333346 25.647346 35.300556
v 8.333341 -25.647350 -35.300556
v 57.117496 -41.498299 -35.300560
v 13.483594 -41.498306 -8.333359
v 13.483594 -41.498306 -8.333359
v 21.816954 -67.145500 35.300541
v -13.483600 -41.498306 8.333344
v -13.483600 -41.498306 8.333344
v -57.117496 -41.498314 35.300545
v -35.300556 -25.647354 -8.333356
v -35.300556 -25.647354 -8.333356
v -70.600998 0.000004 -35.300552
v -21.816957 -15.850948 -35.300556
v -21.816957 -15.850948 -35.300556
v -0.000003 0.000011 -78.934494
v 8.333341 -25.647350 -35.300556
v -26.967257 -0.000008 35.300552
v -57.117496 41.498299 35.300560
v -43.633900 -0.000003 8.333350
v -43.633900 -0.000003 8.333350
v -70.600998 0.000004 -35.300552
v -35.300556 -25.647354 -8.333356
v -35.300556 -25.647354 -8.333356
v -21.816957 -67.145485 -35.300564
v -13.483600 -41.498306 8.333344
v -13.483600 -41.498306 8.333344
v 21.816954 -67.145500 35.300541
v -8.333346 -25.647362 35.300549
v -8.333346 -25.647362 35.300549
v -0.000003 -0.000015 78.934502
v -26.967257 -0.000008 35.300552
v 26.967245 0.000004 -35.300552
v 57.117496 41.498314 -35.300545
v 43.633900 -0.000001 -8.333352
v 43.633900 -0.000001 -8.333352
v 70.600998 -0.000008 35.300552
v 35.300549 -25.647358 8.333346
v 35.300549 -25.647358 8.333346
v 21.816954 -67.145500 35.300541
v 13.483594 -41.498306 -8.333359
v 13.483594 -41.498306 -8.333359
v -21.816957 -67.145485 -35.300564
v 8.333341 -25.647350 -35.300556
v 8.333341 -25.647350 -35.300556
v -0.000003 0.000011 -78.934494
v 26.967245 0.000004 -35.300552
v -8.333346 -25.647362 35.300549
v -57.117496 -41.498314 35.300545
v -13.483600 -41.498306 8.333344
v -13.483600 -41.498306 8.333344
v -21.816957 -67.145485 -35.300564
v 13.483594 -41.498306 -8.333359
v 13.483594 -41.498306 -8.333359
v 57.117496 -41.498299 -35.300560
v 35.300549 -25.647358 8.333346
v 35.300549 -25.647358 8.333346
v 70.600998 -0.000008 35.300552
v 21.816954 -15.850960 35.300549
v 21.816954 -15.850960 35.300549
v -0.000003 -0.000015 78.934502
v -8.333346 -25.647362 35.300549
v 8.333341 25.647358 -35.300549
v -21.816957 67.145515 -35.300541
v 13.483594 41.498306 -8.333345
v 13.483594 41.498306 -8.333345
v 21.816954 67.145500 35.300564
v 35.300549 25.647350 8.333354
v 35.300549 25.647350 8.333354
v 70.600998 -0.000008 35.300552
v 43.633900 -0.000001 -8.333352
v 43.633900 -0.000001 -8.333352
v 57.117496 -41.498299 -35.300560
v 26.967245 0.000004 -35.300552
v 26.967245 0.000004 -35.300552
v -0.000003 0.000011 -78.934494
v 8.333341 25.647358 -35.300549
v 21.816954 -15.850960 35.300549
v 21.816954 -67.145500 35.300541
v 35.300549 -25.647358 8.333346
v 35.300549 -25.647358 8.333346
v 57.117496 -41.498299 -35.300560
v 43.633900 -0.000001 -8.333352
v 43.633900 -0.000001 -8.333352
v 57.117496 41.498314 -35.300545
v 35.300549 25.647350 8.333354
v 35.300549 25.647350 8.333354
v 21.816954 67.145500 35.300564
v 21.816954 15.850945 35.300556
v 21.816954 15.850945 35.300556
v -0.000003 -0.000015 78.934502
v 21.816954 -15.850960 35.300549
v -21.816957 15.850956 -35.300549
v -70.600998 0.000004 -35.300552
v -35.300556 25.647354 -8.333348
v -35.300556 25.647354 -8.333348
v -57.117496 41.498299 35.300560
v -13.483600 41.498306 8.333357
v -13.483600 41.498306 8.333357
v 21.816954 67.145500 35.300564
v 13.483594 41.498306 -8.333345
v 13.483594 41.498306 -8.333345
v 57.117496 41.498314 -35.300545
v 8.333341 25.647358 -35.300549
v 8.333341 25.647358 -35.300549
v -0.000003 0.000011 -78.934494
v -21.816957 15.850956 -35.300549
v 26.967245 0.000004 -35.300552
v 57.117496 -41.498299 -35.300560
v 8.333341 -25.647350 -35.300556
v 8.333341 -25.647350 -35.300556
v -21.816957 -67.145485 -35.300564
v -21.816957 -15.850948 -35.300556
v -21.816957 -15.850948 -35.300556
v -70.600998 0.000004 -35.300552
v -21.816957 15.850956 -35.300549
v -21.816957 15.850956 -35.300549
v -21.816957 67.145515 -35.300541
v 8.333341 25.647358 -35.300549
v 8.333341 25.647358 -35.300549
v 57.117496 41.498314 -35.300545
v 26.967245 0.000004 -35.300552
vn 0.0000 -0.0000 1.0000
vn 0.2764 0.8507 0.4472
vn -0.8944 0.0000 -0.4472
vn -0.7236 0.5257 0.4472
vn -0.2764 -0.8507 -0.4472
vn -0.7236 -0.5257 0.4472
vn 0.7236 -0.5257 -0.4472
vn 0.2764 -0.8507 0.4472
vn 0.7236 0.5257 -0.4472
vn 0.8944 0.0000 0.4472
vn -0.2764 0.8507 -0.4472
vn -0.0000 0.0000 -1.0000
s off
f 1//1 2//1 3//1
f 4//1 5//1 6//1
f 7//1 8//1 9//1
f 10//1 11//1 12//1
f 13//1 14//1 15//1
f 16//2 17//2 18//2
f 19//2 20//2 21//2
f 22//2 23//2 24//2
f 25//2 26//2 27//2
f 28//2 29//2 30//2
f 31//3 32//3 33//3
f 34//3 35//3 36//3
f 37//3 38//3 39//3
f 40//3 41//3 42//3
f 43//3 44//3 45//3
f 46//4 47//4 48//4
f 49//4 50//4 51//4
f 52//4 53//4 54//4
f 55//4 56//4 57//4
f 58//4 59//4 60//4
f 61//5 62//5 63//5
f 64//5 65//5 66//5
f 67//5 68//5 69//5
f 70//5 71//5 72//5
f 73//5 74//5 75//5
f 76//6 77//6 78//6
f 79//6 80//6 81//6
f 82//6 83//6 84//6
f 85//6 86//6 87//6
f 88//6 89//6 90//6
f 91//7 92//7 93//7
f 94//7 95//7 96//7
f 97//7 98//7 99//7
f 100//7 101//7 102//7
f 103//7 104//7 105//7
f 106//8 107//8 108//8
f 109//8 110//8 111//8
f 112//8 113//8 114//8
f 115//8 116//8 117//8
f 118//8 119//8 120//8
f 121//9 122//9 123//9
f 124//9 125//9 126//9
f 127//9 128//9 129//9
f 130//9 131//9 132//9
f 133//9 134//9 135//9
f 136//10 137//10 138//10
f 139//10 140//10 141//10
f 142//10 143//10 144//10
f 145//10 146//10 147//10
f 148//10 149//10 150//10
f 151//11 152//11 153//11
f 154//11 155//11 156//11
f 157//11 158//11 159//11
f 160//11 161//11 162//11
f 163//11 164//11 165//11
f 166//12 167//12 168//12
f 169//12 170//12 171//12
f 172//12 173//12 174//12
f 175//12 176//12 177//12
f 178//12 179//12 180//12
